<svg data-v-423bf9ae="" xmlns="http://www.w3.org/2000/svg" viewBox="0 0 711 90" class="iconLeft"><!----><!----><!----><g data-v-423bf9ae="" id="d88baaf0-cf8b-47b0-9120-2876a63ed8ea" fill="#FFFFFF" transform="matrix(6.030150890350342,0,0,6.030150890350342,113.32185363769531,-1.8241208791732788)"><path d="M1.24 12.61L1.24 2.95L4.59 2.95L4.59 2.95Q5.39 2.95 6.09 3.21L6.09 3.21L6.09 3.21Q6.79 3.47 7.24 4.05L7.24 4.05L7.24 4.05Q7.68 4.63 7.68 5.55L7.68 5.55L7.68 5.55Q7.68 6.17 7.37 6.69L7.37 6.69L7.37 6.69Q7.05 7.20 6.61 7.44L6.61 7.44L6.61 7.44Q7.04 7.61 7.40 7.98L7.40 7.98L7.40 7.98Q7.75 8.36 7.96 8.84L7.96 8.84L7.96 8.84Q8.16 9.32 8.16 9.80L8.16 9.80L8.16 9.80Q8.16 10.67 7.73 11.31L7.73 11.31L7.73 11.31Q7.29 11.94 6.57 12.27L6.57 12.27L6.57 12.27Q5.84 12.61 5.01 12.61L5.01 12.61L1.24 12.61ZM2.98 6.84L4.76 6.84L4.76 6.84Q5.35 6.84 5.72 6.57L5.72 6.57L5.72 6.57Q6.09 6.30 6.09 5.65L6.09 5.65L6.09 5.65Q6.09 5.10 5.68 4.81L5.68 4.81L5.68 4.81Q5.27 4.51 4.62 4.51L4.62 4.51L2.98 4.51L2.98 6.84ZM2.98 10.95L5.04 10.95L5.04 10.95Q5.72 10.95 6.09 10.62L6.09 10.62L6.09 10.62Q6.45 10.28 6.45 9.61L6.45 9.61L6.45 9.61Q6.45 9.26 6.27 8.97L6.27 8.97L6.27 8.97Q6.08 8.68 5.75 8.51L5.75 8.51L5.75 8.51Q5.41 8.33 4.97 8.33L4.97 8.33L2.98 8.33L2.98 10.95ZM11.09 12.74L11.09 12.74Q10.42 12.74 10.04 12.41L10.04 12.41L10.04 12.41Q9.66 12.08 9.66 11.25L9.66 11.25L9.66 2.95L11.33 2.95L11.33 10.79L11.33 10.79Q11.33 11.25 11.87 11.25L11.87 11.25L11.87 11.25Q12.07 11.25 12.33 11.20L12.33 11.20L12.33 12.61L12.33 12.61Q11.63 12.74 11.09 12.74L11.09 12.74ZM13.58 4.48L13.58 2.95L15.31 2.95L15.31 4.48L13.58 4.48ZM13.62 12.61L13.62 5.78L15.27 5.78L15.27 12.61L13.62 12.61ZM19.68 12.74L19.68 12.74Q19.01 12.74 18.53 12.50L18.53 12.50L18.53 12.50Q18.05 12.25 17.79 11.80L17.79 11.80L17.79 11.80Q17.53 11.34 17.53 10.72L17.53 10.72L17.53 7.17L16.43 7.17L16.43 5.78L17.56 5.78L17.56 4.08L19.19 2.89L19.19 5.78L20.91 5.78L20.91 7.17L19.19 7.17L19.19 10.42L19.19 10.42Q19.19 10.89 19.39 11.08L19.39 11.08L19.39 11.08Q19.60 11.27 19.96 11.27L19.96 11.27L19.96 11.27Q20.20 11.27 20.45 11.20L20.45 11.20L20.45 11.20Q20.71 11.13 20.91 11.03L20.91 11.03L20.91 12.54L20.91 12.54Q20.70 12.62 20.35 12.68L20.35 12.68L20.35 12.68Q20.01 12.74 19.68 12.74L19.68 12.74ZM27.80 5.78L27.80 6.97L24.10 11.20L27.80 11.20L27.80 12.61L21.78 12.61L21.78 11.50L25.64 7.17L21.98 7.17L21.98 5.78L27.80 5.78ZM33.52 12.74L33.52 12.74Q31.99 12.74 30.93 12.07L30.93 12.07L30.93 12.07Q29.88 11.40 29.36 10.27L29.36 10.27L29.36 10.27Q28.84 9.14 28.84 7.77L28.84 7.77L28.84 7.77Q28.84 6.41 29.36 5.27L29.36 5.27L29.36 5.27Q29.87 4.14 30.93 3.47L30.93 3.47L30.93 3.47Q31.98 2.79 33.50 2.79L33.50 2.79L33.50 2.79Q34.95 2.79 36.05 3.50L36.05 3.50L36.05 3.50Q37.15 4.22 37.73 5.56L37.73 5.56L36.11 6.21L36.11 6.21Q35.85 5.29 35.17 4.87L35.17 4.87L35.17 4.87Q34.49 4.44 33.49 4.44L33.49 4.44L33.49 4.44Q32.50 4.44 31.85 4.87L31.85 4.87L31.85 4.87Q31.19 5.30 30.88 6.04L30.88 6.04L30.88 6.04Q30.56 6.77 30.56 7.70L30.56 7.70L30.56 7.70Q30.56 8.70 30.88 9.46L30.88 9.46L30.88 9.46Q31.19 10.22 31.86 10.66L31.86 10.66L31.86 10.66Q32.52 11.09 33.52 11.09L33.52 11.09L33.52 11.09Q34.47 11.09 35.11 10.67L35.11 10.67L35.11 10.67Q35.75 10.25 36.13 9.30L36.13 9.30L37.74 9.96L37.74 9.96Q37.17 11.31 36.07 12.02L36.07 12.02L36.07 12.02Q34.97 12.74 33.52 12.74L33.52 12.74ZM39.06 12.61L39.06 5.78L40.69 5.78L40.69 6.92L40.69 6.92Q40.90 6.32 41.41 5.98L41.41 5.98L41.41 5.98Q41.92 5.63 42.52 5.63L42.52 5.63L42.52 5.63Q42.87 5.63 43.20 5.76L43.20 5.76L43.20 5.76Q43.53 5.88 43.77 6.13L43.77 6.13L43.01 7.49L43.01 7.49Q42.66 7.26 42.27 7.26L42.27 7.26L42.27 7.26Q41.86 7.26 41.49 7.52L41.49 7.52L41.49 7.52Q41.13 7.79 40.90 8.34L40.90 8.34L40.90 8.34Q40.67 8.89 40.67 9.72L40.67 9.72L40.67 12.61L39.06 12.61ZM47.48 12.74L47.48 12.74Q46.35 12.74 45.57 12.26L45.57 12.26L45.57 12.26Q44.79 11.77 44.40 10.97L44.40 10.97L44.40 10.97Q44.02 10.17 44.02 9.21L44.02 9.21L44.02 9.21Q44.02 8.29 44.39 7.46L44.39 7.46L44.39 7.46Q44.75 6.64 45.51 6.14L45.51 6.14L45.51 6.14Q46.27 5.63 47.37 5.63L47.37 5.63L47.37 5.63Q48.49 5.63 49.20 6.15L49.20 6.15L49.20 6.15Q49.91 6.67 50.22 7.45L50.22 7.45L50.22 7.45Q50.53 8.23 50.53 9.08L50.53 9.08L50.53 9.08Q50.53 9.28 50.51 9.47L50.51 9.47L50.51 9.47Q50.50 9.66 50.47 9.73L50.47 9.73L45.78 9.73L45.78 9.73Q46.02 11.23 47.49 11.23L47.49 11.23L47.49 11.23Q47.97 11.23 48.38 11.06L48.38 11.06L48.38 11.06Q48.78 10.89 49.13 10.51L49.13 10.51L50.28 11.51L50.28 11.51Q49.72 12.13 49.03 12.44L49.03 12.44L49.03 12.44Q48.34 12.74 47.48 12.74L47.48 12.74ZM45.78 8.53L48.89 8.53L48.89 8.53Q48.81 7.81 48.41 7.42L48.41 7.42L48.41 7.42Q48.01 7.03 47.35 7.03L47.35 7.03L47.35 7.03Q46.05 7.03 45.78 8.53L45.78 8.53ZM53.79 12.74L53.79 12.74Q53.09 12.74 52.52 12.48L52.52 12.48L52.52 12.48Q51.96 12.22 51.64 11.71L51.64 11.71L51.64 11.71Q51.31 11.20 51.31 10.51L51.31 10.51L51.31 10.51Q51.31 9.46 52.05 9.00L52.05 9.00L52.05 9.00Q52.78 8.53 54.03 8.53L54.03 8.53L55.81 8.53L55.81 8.53Q55.81 7.87 55.46 7.48L55.46 7.48L55.46 7.48Q55.11 7.09 54.46 7.09L54.46 7.09L54.46 7.09Q53.92 7.09 53.51 7.36L53.51 7.36L53.51 7.36Q53.10 7.63 52.86 8.05L52.86 8.05L51.58 7.13L51.58 7.13Q52.10 6.41 52.80 6.02L52.80 6.02L52.80 6.02Q53.49 5.63 54.45 5.63L54.45 5.63L54.45 5.63Q55.36 5.63 56.03 5.99L56.03 5.99L56.03 5.99Q56.70 6.34 57.05 6.99L57.05 6.99L57.05 6.99Q57.40 7.63 57.40 8.46L57.40 8.46L57.40 12.61L56.03 12.61L55.92 11.63L55.92 11.63Q55.50 12.24 54.97 12.49L54.97 12.49L54.97 12.49Q54.45 12.74 53.79 12.74L53.79 12.74ZM54.03 11.33L54.03 11.33Q54.50 11.33 54.90 11.11L54.90 11.11L54.90 11.11Q55.30 10.89 55.55 10.52L55.55 10.52L55.55 10.52Q55.79 10.16 55.81 9.73L55.81 9.73L54.13 9.73L54.13 9.73Q53.59 9.73 53.30 9.97L53.30 9.97L53.30 9.97Q53.02 10.21 53.02 10.56L53.02 10.56L53.02 10.56Q53.02 10.91 53.29 11.12L53.29 11.12L53.29 11.12Q53.55 11.33 54.03 11.33L54.03 11.33ZM59.18 12.61L59.18 5.78L60.86 5.78L60.86 6.49L60.86 6.49Q61.18 6.05 61.63 5.84L61.63 5.84L61.63 5.84Q62.08 5.63 62.60 5.63L62.60 5.63L62.60 5.63Q63.85 5.63 64.52 6.84L64.52 6.84L64.52 6.84Q64.90 6.23 65.50 5.93L65.50 5.93L65.50 5.93Q66.09 5.63 66.78 5.63L66.78 5.63L66.78 5.63Q67.61 5.63 68.18 6.04L68.18 6.04L68.18 6.04Q68.75 6.44 69.03 7.09L69.03 7.09L69.03 7.09Q69.30 7.75 69.30 8.50L69.30 8.50L69.30 12.61L67.61 12.61L67.61 8.72L67.61 8.72Q67.61 8.01 67.36 7.60L67.36 7.60L67.36 7.60Q67.11 7.18 66.51 7.18L66.51 7.18L66.51 7.18Q66.07 7.18 65.74 7.41L65.74 7.41L65.74 7.41Q65.42 7.63 65.25 8.01L65.25 8.01L65.25 8.01Q65.08 8.39 65.08 8.85L65.08 8.85L65.08 12.61L63.38 12.61L63.38 8.69L63.38 8.69Q63.38 7.99 63.14 7.59L63.14 7.59L63.14 7.59Q62.90 7.18 62.30 7.18L62.30 7.18L62.30 7.18Q61.86 7.18 61.53 7.41L61.53 7.41L61.53 7.41Q61.21 7.63 61.03 8.01L61.03 8.01L61.03 8.01Q60.86 8.39 60.86 8.85L60.86 8.85L60.86 12.61L59.18 12.61ZM78.69 12.74L78.69 12.74Q77.16 12.74 76.11 12.07L76.11 12.07L76.11 12.07Q75.06 11.40 74.54 10.27L74.54 10.27L74.54 10.27Q74.03 9.14 74.03 7.77L74.03 7.77L74.03 7.77Q74.03 6.41 74.54 5.28L74.54 5.28L74.54 5.28Q75.06 4.15 76.11 3.48L76.11 3.48L76.11 3.48Q77.16 2.80 78.69 2.80L78.69 2.80L78.69 2.80Q80.22 2.80 81.27 3.48L81.27 3.48L81.27 3.48Q82.32 4.15 82.83 5.28L82.83 5.28L82.83 5.28Q83.35 6.41 83.35 7.77L83.35 7.77L83.35 7.77Q83.35 9.14 82.83 10.27L82.83 10.27L82.83 10.27Q82.32 11.40 81.27 12.07L81.27 12.07L81.27 12.07Q80.22 12.74 78.69 12.74L78.69 12.74ZM78.69 11.20L78.69 11.20Q79.68 11.20 80.31 10.74L80.31 10.74L80.31 10.74Q80.94 10.28 81.23 9.51L81.23 9.51L81.23 9.51Q81.52 8.74 81.52 7.77L81.52 7.77L81.52 7.77Q81.52 6.81 81.23 6.04L81.23 6.04L81.23 6.04Q80.94 5.27 80.31 4.81L80.31 4.81L80.31 4.81Q79.68 4.35 78.69 4.35L78.69 4.35L78.69 4.35Q77.70 4.35 77.06 4.81L77.06 4.81L77.06 4.81Q76.43 5.27 76.15 6.04L76.15 6.04L76.15 6.04Q75.86 6.81 75.86 7.77L75.86 7.77L75.86 7.77Q75.86 8.74 76.15 9.51L76.15 9.51L76.15 9.51Q76.43 10.28 77.06 10.74L77.06 10.74L77.06 10.74Q77.70 11.20 78.69 11.20L78.69 11.20ZM87.92 12.71L87.92 12.71Q87.04 12.71 86.25 12.39L86.25 12.39L86.25 12.39Q85.46 12.07 84.91 11.43L84.91 11.43L84.91 11.43Q84.37 10.79 84.22 9.88L84.22 9.88L85.94 9.44L85.94 9.44Q86.03 10.30 86.58 10.74L86.58 10.74L86.58 10.74Q87.13 11.18 87.94 11.18L87.94 11.18L87.94 11.18Q88.44 11.18 88.81 11.02L88.81 11.02L88.81 11.02Q89.17 10.86 89.35 10.58L89.35 10.58L89.35 10.58Q89.54 10.29 89.54 9.95L89.54 9.95L89.54 9.95Q89.54 9.53 89.28 9.24L89.28 9.24L89.28 9.24Q89.02 8.94 88.64 8.75L88.64 8.75L88.64 8.75Q88.26 8.56 87.59 8.29L87.59 8.29L87.59 8.29Q86.71 7.94 86.17 7.65L86.17 7.65L86.17 7.65Q85.63 7.35 85.25 6.82L85.25 6.82L85.25 6.82Q84.86 6.28 84.86 5.47L84.86 5.47L84.86 5.47Q84.86 4.64 85.27 4.04L85.27 4.04L85.27 4.04Q85.67 3.43 86.36 3.12L86.36 3.12L86.36 3.12Q87.05 2.80 87.88 2.80L87.88 2.80L87.88 2.80Q88.81 2.80 89.57 3.22L89.57 3.22L89.57 3.22Q90.34 3.64 90.82 4.50L90.82 4.50L89.37 5.38L89.37 5.38Q89.12 4.89 88.71 4.62L88.71 4.62L88.71 4.62Q88.30 4.35 87.81 4.35L87.81 4.35L87.81 4.35Q87.47 4.35 87.20 4.48L87.20 4.48L87.20 4.48Q86.92 4.61 86.76 4.84L86.76 4.84L86.76 4.84Q86.60 5.08 86.60 5.38L86.60 5.38L86.60 5.38Q86.60 5.75 86.84 6.01L86.84 6.01L86.84 6.01Q87.08 6.27 87.44 6.45L87.44 6.45L87.44 6.45Q87.81 6.62 88.44 6.87L88.44 6.87L88.44 6.87Q89.35 7.22 89.91 7.53L89.91 7.53L89.91 7.53Q90.47 7.83 90.87 8.39L90.87 8.39L90.87 8.39Q91.27 8.94 91.27 9.79L91.27 9.79L91.27 9.79Q91.27 10.68 90.83 11.34L90.83 11.34L90.83 11.34Q90.38 12.00 89.61 12.36L89.61 12.36L89.61 12.36Q88.85 12.71 87.92 12.71L87.92 12.71ZM95.69 12.71L95.69 12.71Q94.81 12.71 94.02 12.39L94.02 12.39L94.02 12.39Q93.23 12.07 92.69 11.43L92.69 11.43L92.69 11.43Q92.14 10.79 91.99 9.88L91.99 9.88L93.71 9.44L93.71 9.44Q93.80 10.30 94.35 10.74L94.35 10.74L94.35 10.74Q94.90 11.18 95.72 11.18L95.72 11.18L95.72 11.18Q96.22 11.18 96.58 11.02L96.58 11.02L96.58 11.02Q96.94 10.86 97.13 10.58L97.13 10.58L97.13 10.58Q97.31 10.29 97.31 9.95L97.31 9.95L97.31 9.95Q97.31 9.53 97.05 9.24L97.05 9.24L97.05 9.24Q96.80 8.94 96.41 8.75L96.41 8.75L96.41 8.75Q96.03 8.56 95.36 8.29L95.36 8.29L95.36 8.29Q94.49 7.94 93.95 7.65L93.95 7.65L93.95 7.65Q93.41 7.35 93.02 6.82L93.02 6.82L93.02 6.82Q92.63 6.28 92.63 5.47L92.63 5.47L92.63 5.47Q92.63 4.64 93.04 4.04L93.04 4.04L93.04 4.04Q93.45 3.43 94.13 3.12L94.13 3.12L94.13 3.12Q94.82 2.80 95.65 2.80L95.65 2.80L95.65 2.80Q96.58 2.80 97.34 3.22L97.34 3.22L97.34 3.22Q98.11 3.64 98.59 4.50L98.59 4.50L97.15 5.38L97.15 5.38Q96.89 4.89 96.48 4.62L96.48 4.62L96.48 4.62Q96.07 4.35 95.59 4.35L95.59 4.35L95.59 4.35Q95.25 4.35 94.97 4.48L94.97 4.48L94.97 4.48Q94.69 4.61 94.53 4.84L94.53 4.84L94.53 4.84Q94.37 5.08 94.37 5.38L94.37 5.38L94.37 5.38Q94.37 5.75 94.61 6.01L94.61 6.01L94.61 6.01Q94.85 6.27 95.21 6.45L95.21 6.45L95.21 6.45Q95.58 6.62 96.22 6.87L96.22 6.87L96.22 6.87Q97.12 7.22 97.68 7.53L97.68 7.53L97.68 7.53Q98.24 7.83 98.64 8.39L98.64 8.39L98.64 8.39Q99.05 8.94 99.05 9.79L99.05 9.79L99.05 9.79Q99.05 10.68 98.60 11.34L98.60 11.34L98.60 11.34Q98.15 12.00 97.38 12.36L97.38 12.36L97.38 12.36Q96.62 12.71 95.69 12.71L95.69 12.71Z"></path></g><defs data-v-423bf9ae=""><linearGradient data-v-423bf9ae="" gradientTransform="rotate(25)" id="19c4671f-1bb8-4314-a19f-b15aceb29585" x1="0%" y1="0%" x2="100%" y2="0%"><stop data-v-423bf9ae="" offset="0%" style="stop-color: rgb(10, 159, 201); stop-opacity: 1;"></stop><stop data-v-423bf9ae="" offset="100%" style="stop-color: rgb(187, 52, 166); stop-opacity: 1;"></stop></linearGradient></defs><g data-v-423bf9ae="" id="8f8fd227-176b-4b47-9c1b-19723ef5efd3" transform="matrix(1.2947776317596436,0,0,1.2947776317596436,-13.663981437683105,-19.49329376220703)" stroke="none" fill="url(#19c4671f-1bb8-4314-a19f-b15aceb29585)"><path d="M88.677 65.348c-.502-1.467-1.929-2.958-4.407-2.958-.465 0-.967.052-1.507.167l-22.757 5.521c-.079.398-.19.797-.334 1.189-.895 2.443-3.305 4.908-7.363 4.908-.811 0-1.688-.099-2.631-.314-10.584-2.432-15.112-3.924-15.3-3.986l.945-2.848c.045.016 4.609 1.518 15.026 3.91a8.74 8.74 0 0 0 1.938.233c2.221 0 3.87-1.03 4.566-2.935.723-1.975.17-4.753-2.276-6.014l-.129-.066c-7.95-4.097-18.498-8.881-22.056-8.881-2.418 0-5.764.686-9.307 1.41-3.804.779-8.058 1.649-12.011 1.837v20.843h2.949c6.66 0 15.024 2.365 22.404 4.451 5.347 1.511 10.396 2.938 13.19 2.938 8.938 0 12.42-1.674 35.075-12.572l.607-.293c3.332-1.599 4.097-4.437 3.378-6.54zM37.125 40.455c3.014-.563 6.09-.295 8.893.773l1.424-3.738c-3.491-1.33-7.314-1.664-11.051-.967-1.055.197-2.06.488-3.016.848.292-2.359 1.139-4.205 2.55-5.492 3.33-3.037 9.157-2.697 12.336-2.227 4.021.598 7.397-.846 9.266-3.958a9.15 9.15 0 0 0 1.243-3.776c6.815 5.967 8.381 14.034 6.095 19.779-2.492 6.266-8.895 8.861-17.126 6.943l-.908 3.896c2.176.507 4.188.736 6.04.736 5.762 0 9.969-2.234 12.733-5.305 5.345 3.581 6.689 9.682 6.727 11.571v2.461l4-.97V59.5c-.076-3.818-2.411-10.736-8.449-14.82.26-.496.498-.996.7-1.504 3.322-8.352.297-20.533-11.913-27.658a1.999 1.999 0 0 0-2.615 2.918c.997 1.345 1.016 3.58.043 5.201-.714 1.189-2.2 2.512-5.247 2.061-3.879-.578-11.067-.924-15.619 3.227-2.705 2.467-4.022 6.072-3.957 10.699-3.602 2.725-5.767 6.821-5.678 11.387v.511c1.384-.281 2.729-.545 4.006-.758.002-5.11 3.799-9.239 9.523-10.309z"></path></g><!----></svg>