<?xml version="1.0" standalone="no"?>
<!DOCTYPE svg PUBLIC "-//W3C//DTD SVG 20010904//EN"
 "http://www.w3.org/TR/2001/REC-SVG-20010904/DTD/svg10.dtd">
<svg version="1.0" xmlns="http://www.w3.org/2000/svg"
 width="112.000000pt" height="112.000000pt" viewBox="0 0 112.000000 112.000000"
 preserveAspectRatio="xMidYMid meet">
<metadata>
Created by potrace 1.16, written by Peter Selinger 2001-2019
</metadata>
<g transform="translate(0.000000,112.000000) scale(0.100000,-0.100000)"
fill="#000000" stroke="none">
<path d="M770 861 c22 -7 18 -9 -25 -16 -27 -5 -65 -8 -82 -8 -18 1 -30 -3
-27 -8 3 -5 10 -7 15 -4 5 4 9 1 9 -4 0 -10 -21 -16 -42 -12 -5 0 -8 -3 -8 -9
0 -5 -18 -10 -39 -10 -34 0 -38 3 -34 20 4 14 0 20 -10 20 -8 0 -17 -4 -19 -9
-1 -4 -28 -11 -58 -14 -30 -3 -46 -3 -35 0 43 11 38 23 -9 23 -29 0 -45 -4
-41 -10 3 -5 -3 -10 -13 -10 -11 0 -26 -7 -33 -16 -9 -11 -23 -14 -46 -11 -24
4 -33 2 -33 -8 0 -9 7 -12 18 -9 9 3 4 -2 -13 -12 -16 -9 -41 -27 -55 -40 -16
-15 -44 -25 -78 -30 -28 -3 -52 -10 -52 -14 0 -4 -7 -11 -16 -14 -10 -4 -13
-2 -8 6 5 8 2 9 -10 5 -10 -4 -20 -7 -22 -7 -2 0 -4 -18 -4 -40 l0 -40 33 20
c71 43 154 8 182 -77 0 -1 28 4 62 11 69 15 140 7 180 -19 41 -27 76 -92 81
-149 4 -51 -10 -117 -30 -142 -14 -19 -47 -4 -75 33 -24 31 -25 35 -9 52 20
22 20 42 2 86 -16 38 -46 54 -160 84 -39 10 -78 22 -86 25 -12 5 -16 0 -15
-21 0 -18 -6 -29 -18 -31 -21 -4 -34 25 -20 48 9 13 7 19 -8 28 -17 11 -19 9
-19 -11 0 -35 -43 -71 -74 -63 l-26 6 0 -84 c0 -70 3 -87 18 -95 16 -10 16
-10 0 -11 -12 0 -18 -8 -18 -25 0 -14 5 -25 10 -25 6 0 10 -7 10 -15 0 -9 11
-20 24 -25 19 -7 27 -20 36 -65 6 -31 9 -63 6 -71 -6 -16 -52 -19 -61 -4 -11
18 -25 10 -25 -15 0 -24 2 -25 72 -25 53 0 69 3 61 11 -6 6 -9 26 -6 45 3 19
1 39 -4 46 -5 7 -7 26 -4 43 l6 30 22 -31 c43 -61 92 -51 109 22 l12 49 -5
-57 c-3 -31 -1 -70 5 -86 10 -30 10 -30 -41 -50 l-52 -21 115 1 c63 0 106 2
95 5 -33 8 -83 63 -88 96 -5 36 9 93 25 103 8 5 9 1 4 -12 -4 -10 -10 -41 -12
-67 -4 -47 -4 -48 28 -60 18 -6 36 -10 40 -9 4 1 22 -7 39 -17 28 -17 29 -20
12 -30 -13 -7 79 -10 335 -11 l352 0 0 75 c0 41 -4 75 -8 75 -5 0 -17 7 -28
15 -10 8 -14 15 -9 14 6 -1 18 1 28 6 15 6 16 10 5 16 -7 5 -13 12 -13 16 -1
4 -6 18 -13 29 -10 19 -9 23 9 27 12 3 18 10 14 16 -3 6 -1 11 4 11 6 0 11 7
11 16 0 8 -4 13 -8 10 -5 -3 -10 15 -10 39 -1 25 2 45 8 45 6 0 10 33 9 85 -1
83 -1 84 -23 70 -11 -7 -43 -17 -71 -21 -49 -7 -50 -6 -32 13 23 26 22 64 -4
97 -25 32 -10 34 44 7 20 -10 48 -22 62 -25 25 -6 25 -6 25 64 0 40 -4 70 -10
70 -5 0 -10 -7 -10 -15 0 -19 -7 -19 -26 -1 -12 13 -12 15 4 19 12 3 10 5 -8
7 -14 1 -28 2 -32 1 -5 0 -7 2 -7 7 1 4 1 14 -1 22 -1 11 -3 10 -9 -4 -5 -13
-18 -19 -44 -20 -20 -1 -37 3 -37 7 0 29 -109 78 -169 76 l-26 -1 25 -7z m110
-198 c0 -5 -7 -17 -15 -27 -20 -27 -19 -49 6 -80 l20 -26 -28 1 c-15 0 -46 3
-68 7 -31 6 -49 2 -84 -15 -65 -33 -135 -29 -81 5 27 17 28 77 1 92 -66 35
-135 -27 -96 -86 16 -25 16 -26 -7 -19 -24 8 -88 44 -88 51 0 8 111 74 135 80
28 7 115 -11 158 -33 15 -7 27 -21 28 -31 0 -13 2 -14 6 -2 13 37 114 111 113
83z"/>
</g>
</svg>
